<svg xmlns="http://www.w3.org/2000/svg" viewBox="0 0 900 500" width="100%" height="100%" style="background:#ffffff; font-family:'Segoe UI', 'PingFang SC', 'Microsoft YaHei', sans-serif;">
  <rect width="900" height="500" fill="#fcfdfc" rx="8"/>
  <text x="40" y="45" font-size="20" font-weight="bold" fill="#1a2521">RQ3: 运营参数（满载率 × 年均里程）扰动敏感性矩阵</text>
  <text x="40" y="70" font-size="13" fill="#55645d">分析在 ±20% 运营参数双向网格扰动下，估算模型相对基准台账的偏离度分布规律</text>

  <!-- 纵坐标轴说明 (满载率扰动) -->
  <text x="110" y="270" font-size="14" font-weight="bold" fill="#1a2521" text-anchor="middle" transform="rotate(-90, 110, 270)">满载率扰动 (Δ Load Factor)</text>

  <!-- 横坐标轴说明 (年均里程扰动) -->
  <text x="510" y="445" font-size="14" font-weight="bold" fill="#1a2521" text-anchor="middle">年均里程扰动 (Δ Annual Km)</text>
<text x="285.0" y="98" font-size="12" font-weight="600" fill="#1a2521" text-anchor="middle">-20%</text>
<text x="395.0" y="98" font-size="12" font-weight="600" fill="#1a2521" text-anchor="middle">-10%</text>
<text x="505.0" y="98" font-size="12" font-weight="600" fill="#1a2521" text-anchor="middle">基准 (0%)</text>
<text x="615.0" y="98" font-size="12" font-weight="600" fill="#1a2521" text-anchor="middle">+10%</text>
<text x="725.0" y="98" font-size="12" font-weight="600" fill="#1a2521" text-anchor="middle">+20%</text>
<text x="215" y="142.5" font-size="12" font-weight="600" fill="#1a2521" text-anchor="end">-20%</text>

  <rect x="230" y="110" width="106" height="51" fill="rgba(192, 124, 42, 0.17)" stroke="rgba(184, 66, 62, 0.32)" stroke-width="1" rx="4"/>
  <text x="285.0" y="142.5" font-size="13" font-weight="bold" fill="#1a2521" text-anchor="middle">+1.22%</text>

  <rect x="340" y="110" width="106" height="51" fill="rgba(192, 124, 42, 0.25)" stroke="rgba(184, 66, 62, 0.38)" stroke-width="1" rx="4"/>
  <text x="395.0" y="142.5" font-size="13" font-weight="bold" fill="#1a2521" text-anchor="middle">+1.89%</text>

  <rect x="450" y="110" width="106" height="51" fill="rgba(192, 124, 42, 0.32)" stroke="rgba(184, 66, 62, 0.43)" stroke-width="1" rx="4"/>
  <text x="505.0" y="142.5" font-size="13" font-weight="bold" fill="#1a2521" text-anchor="middle">+2.54%</text>

  <rect x="560" y="110" width="106" height="51" fill="rgba(192, 124, 42, 0.39)" stroke="rgba(184, 66, 62, 0.49)" stroke-width="1" rx="4"/>
  <text x="615.0" y="142.5" font-size="13" font-weight="bold" fill="#1a2521" text-anchor="middle">+3.20%</text>

  <rect x="670" y="110" width="106" height="51" fill="rgba(192, 124, 42, 0.46)" stroke="rgba(184, 66, 62, 0.54)" stroke-width="1" rx="4"/>
  <text x="725.0" y="142.5" font-size="13" font-weight="bold" fill="#1a2521" text-anchor="middle">+3.85%</text>
<text x="215" y="197.5" font-size="12" font-weight="600" fill="#1a2521" text-anchor="end">-10%</text>

  <rect x="230" y="165" width="106" height="51" fill="rgba(192, 124, 42, 0.26)" stroke="rgba(184, 66, 62, 0.39)" stroke-width="1" rx="4"/>
  <text x="285.0" y="197.5" font-size="13" font-weight="bold" fill="#1a2521" text-anchor="middle">+2.05%</text>

  <rect x="340" y="165" width="106" height="51" fill="rgba(192, 124, 42, 0.35)" stroke="rgba(184, 66, 62, 0.46)" stroke-width="1" rx="4"/>
  <text x="395.0" y="197.5" font-size="13" font-weight="bold" fill="#1a2521" text-anchor="middle">+2.84%</text>

  <rect x="450" y="165" width="106" height="51" fill="rgba(192, 124, 42, 0.42)" stroke="rgba(184, 66, 62, 0.52)" stroke-width="1" rx="4"/>
  <text x="505.0" y="197.5" font-size="13" font-weight="bold" fill="#1a2521" text-anchor="middle">+3.55%</text>

  <rect x="560" y="165" width="106" height="51" fill="rgba(192, 124, 42, 0.50)" stroke="rgba(184, 66, 62, 0.58)" stroke-width="1" rx="4"/>
  <text x="615.0" y="197.5" font-size="13" font-weight="bold" fill="#1a2521" text-anchor="middle">+4.28%</text>

  <rect x="670" y="165" width="106" height="51" fill="rgba(192, 124, 42, 0.58)" stroke="rgba(184, 66, 62, 0.64)" stroke-width="1" rx="4"/>
  <text x="725.0" y="197.5" font-size="13" font-weight="bold" fill="#1a2521" text-anchor="middle">+5.01%</text>
<text x="215" y="252.5" font-size="12" font-weight="600" fill="#1a2521" text-anchor="end">基准 (0%)</text>

  <rect x="230" y="220" width="106" height="51" fill="rgba(192, 124, 42, 0.35)" stroke="rgba(184, 66, 62, 0.46)" stroke-width="1" rx="4"/>
  <text x="285.0" y="252.5" font-size="13" font-weight="bold" fill="#1a2521" text-anchor="middle">+2.88%</text>

  <rect x="340" y="220" width="106" height="51" fill="rgba(192, 124, 42, 0.43)" stroke="rgba(184, 66, 62, 0.52)" stroke-width="1" rx="4"/>
  <text x="395.0" y="252.5" font-size="13" font-weight="bold" fill="#1a2521" text-anchor="middle">+3.60%</text>

  <rect x="450" y="220" width="106" height="51" fill="rgba(192, 124, 42, 0.50)" stroke="rgba(184, 66, 62, 0.58)" stroke-width="2.5" rx="4"/>
  <text x="505.0" y="252.5" font-size="13" font-weight="bold" fill="#1a2521" text-anchor="middle">+4.23%</text>
<text x="505.0" y="235" font-size="9" font-weight="bold" fill="#b8423e" text-anchor="middle">★ 基准工况</text>

  <rect x="560" y="220" width="106" height="51" fill="rgba(192, 124, 42, 0.59)" stroke="rgba(184, 66, 62, 0.65)" stroke-width="1" rx="4"/>
  <text x="615.0" y="252.5" font-size="13" font-weight="bold" fill="#1a2521" text-anchor="middle">+5.12%</text>

  <rect x="670" y="220" width="106" height="51" fill="rgba(192, 124, 42, 0.67)" stroke="rgba(184, 66, 62, 0.72)" stroke-width="1" rx="4"/>
  <text x="725.0" y="252.5" font-size="13" font-weight="bold" fill="#1a2521" text-anchor="middle">+5.89%</text>
<text x="215" y="307.5" font-size="12" font-weight="600" fill="#1a2521" text-anchor="end">+10%</text>

  <rect x="230" y="275" width="106" height="51" fill="rgba(192, 124, 42, 0.43)" stroke="rgba(184, 66, 62, 0.53)" stroke-width="1" rx="4"/>
  <text x="285.0" y="307.5" font-size="13" font-weight="bold" fill="#1a2521" text-anchor="middle">+3.65%</text>

  <rect x="340" y="275" width="106" height="51" fill="rgba(192, 124, 42, 0.52)" stroke="rgba(184, 66, 62, 0.60)" stroke-width="1" rx="4"/>
  <text x="395.0" y="307.5" font-size="13" font-weight="bold" fill="#1a2521" text-anchor="middle">+4.45%</text>

  <rect x="450" y="275" width="106" height="51" fill="rgba(192, 124, 42, 0.60)" stroke="rgba(184, 66, 62, 0.66)" stroke-width="1" rx="4"/>
  <text x="505.0" y="307.5" font-size="13" font-weight="bold" fill="#1a2521" text-anchor="middle">+5.20%</text>

  <rect x="560" y="275" width="106" height="51" fill="rgba(192, 124, 42, 0.69)" stroke="rgba(184, 66, 62, 0.73)" stroke-width="1" rx="4"/>
  <text x="615.0" y="307.5" font-size="13" font-weight="bold" fill="#1a2521" text-anchor="middle">+6.02%</text>

  <rect x="670" y="275" width="106" height="51" fill="rgba(192, 124, 42, 0.77)" stroke="rgba(184, 66, 62, 0.80)" stroke-width="1" rx="4"/>
  <text x="725.0" y="307.5" font-size="13" font-weight="bold" fill="#1a2521" text-anchor="middle">+6.82%</text>
<text x="215" y="362.5" font-size="12" font-weight="600" fill="#1a2521" text-anchor="end">+20%</text>

  <rect x="230" y="330" width="106" height="51" fill="rgba(192, 124, 42, 0.51)" stroke="rgba(184, 66, 62, 0.59)" stroke-width="1" rx="4"/>
  <text x="285.0" y="362.5" font-size="13" font-weight="bold" fill="#1a2521" text-anchor="middle">+4.38%</text>

  <rect x="340" y="330" width="106" height="51" fill="rgba(192, 124, 42, 0.61)" stroke="rgba(184, 66, 62, 0.66)" stroke-width="1" rx="4"/>
  <text x="395.0" y="362.5" font-size="13" font-weight="bold" fill="#1a2521" text-anchor="middle">+5.25%</text>

  <rect x="450" y="330" width="106" height="51" fill="rgba(192, 124, 42, 0.70)" stroke="rgba(184, 66, 62, 0.74)" stroke-width="1" rx="4"/>
  <text x="505.0" y="362.5" font-size="13" font-weight="bold" fill="#1a2521" text-anchor="middle">+6.10%</text>

  <rect x="560" y="330" width="106" height="51" fill="rgba(192, 124, 42, 0.79)" stroke="rgba(184, 66, 62, 0.82)" stroke-width="1" rx="4"/>
  <text x="615.0" y="362.5" font-size="13" font-weight="bold" fill="#1a2521" text-anchor="middle">+7.01%</text>

  <rect x="670" y="330" width="106" height="51" fill="rgba(192, 124, 42, 0.88)" stroke="rgba(184, 66, 62, 0.88)" stroke-width="1" rx="4"/>
  <text x="725.0" y="362.5" font-size="13" font-weight="bold" fill="#1a2521" text-anchor="middle">+7.80%</text>

  <!-- 底部核心机理发现 -->
  <rect x="40" y="465" width="820" height="25" fill="#f0f5f2" rx="4"/>
  <text x="50" y="482" font-size="12" fill="#2d5240">核心机理：相对误差在整个网格内恒为正偏 (+1.22% ~ +7.80%)，绝无低估风险；满载率对误差灵敏度高于里程，证明基线保守性假设完全成立。</text>
</svg>